<svg width="64" height="191" viewBox="0 0 64 191" fill="none" xmlns="http://www.w3.org/2000/svg">
<path d="M26.32 3.17999C29.2533 1.71333 34.3867 0.979995 41.72 0.979995C56.0933 0.979995 63.28 4.35333 63.28 11.1C63.28 11.6867 63.2067 12.3467 63.06 13.08L35.78 128.36H12.24L26.32 3.17999ZM5.64 159.6C9.16 156.08 13.4133 154.32 18.4 154.32C23.3867 154.32 27.64 156.08 31.16 159.6C34.68 163.12 36.44 167.373 36.44 172.36C36.44 177.347 34.68 181.6 31.16 185.12C27.64 188.493 23.3867 190.18 18.4 190.18C13.4133 190.18 9.16 188.493 5.64 185.12C2.26667 181.6 0.58 177.347 0.58 172.36C0.58 167.373 2.26667 163.12 5.64 159.6Z" fill="url(#paint0_linear_2007_2)"/>
<defs>
<linearGradient id="paint0_linear_2007_2" x1="83.5" y1="-53" x2="-84" y2="120" gradientUnits="userSpaceOnUse">
<stop stop-color="#E81515"/>
<stop offset="1" stop-color="#F1705E"/>
</linearGradient>
</defs>
</svg>
